<svg xmlns="http://www.w3.org/2000/svg" width="1280" height="320" viewBox="0 0 1280 320" role="img" aria-label="Deep Blue Ventures: the holding company for our ocean ventures">
  <defs>
    <linearGradient id="bg" x1="0" y1="0" x2="1" y2="1">
      <stop offset="0" stop-color="#030d18"/>
      <stop offset="1" stop-color="#0a2a43"/>
    </linearGradient>
    <linearGradient id="line" x1="0" y1="0" x2="1" y2="0">
      <stop offset="0" stop-color="#2fb3c6" stop-opacity="0"/>
      <stop offset="0.5" stop-color="#2fb3c6" stop-opacity="0.9"/>
      <stop offset="1" stop-color="#2fb3c6" stop-opacity="0"/>
    </linearGradient>
  </defs>
  <rect width="1280" height="320" fill="url(#bg)"/>
  <g fill="none" stroke="#2fb3c6" stroke-opacity="0.18" stroke-width="1.5">
    <path d="M0 250 C 160 225, 320 275, 480 250 S 800 225, 960 250 S 1200 275, 1280 255"/>
    <path d="M0 272 C 160 247, 320 297, 480 272 S 800 247, 960 272 S 1200 297, 1280 277"/>
    <path d="M0 294 C 160 269, 320 319, 480 294 S 800 269, 960 294 S 1200 319, 1280 299"/>
  </g>
  <g fill="none" stroke="#2fb3c6" stroke-width="1.5">
    <line x1="1060" y1="88" x2="940" y2="196" stroke-opacity="0.7"/>
    <line x1="1060" y1="88" x2="1060" y2="196" stroke-opacity="0.35" stroke-dasharray="5 6"/>
    <line x1="1060" y1="88" x2="1180" y2="196" stroke-opacity="0.35" stroke-dasharray="5 6"/>
  </g>
  <circle cx="1060" cy="80" r="20" fill="none" stroke="#2fb3c6" stroke-opacity="0.35" stroke-width="1.5"/>
  <circle cx="1060" cy="80" r="11" fill="#2fb3c6"/>
  <circle cx="940" cy="204" r="8" fill="#2fb3c6"/>
  <circle cx="1060" cy="204" r="8" fill="none" stroke="#2fb3c6" stroke-opacity="0.6" stroke-width="1.5" stroke-dasharray="3 3"/>
  <circle cx="1180" cy="204" r="8" fill="none" stroke="#2fb3c6" stroke-opacity="0.6" stroke-width="1.5" stroke-dasharray="3 3"/>
  <text x="940" y="236" text-anchor="middle" font-family="Segoe UI, Helvetica Neue, Arial, sans-serif" font-size="13" fill="#a9c7d8" letter-spacing="2">TRITON</text>
  <text x="80" y="140" font-family="Segoe UI, Helvetica Neue, Arial, sans-serif" font-size="56" font-weight="700" fill="#ffffff" letter-spacing="1">DEEP BLUE VENTURES</text>
  <rect x="80" y="160" width="520" height="2" fill="url(#line)"/>
  <text x="80" y="200" font-family="Segoe UI, Helvetica Neue, Arial, sans-serif" font-size="24" fill="#a9c7d8">The holding company for our ocean ventures.</text>
</svg>
